<?xml version="1.0" encoding="UTF-8"?>
<!DOCTYPE svg PUBLIC "-//W3C//DTD SVG 1.1//EN" "http://www.w3.org/Graphics/SVG/1.1/DTD/svg11.dtd">
<svg width="811pt" height="1234pt" viewBox="0 0 811 1234" version="1.1" xmlns="http://www.w3.org/2000/svg">
<path fill="#ffffff" d=" M 0.00 0.00 L 489.56 0.00 C 482.25 79.66 475.07 159.34 467.80 239.00 C 467.34 243.76 465.96 248.36 464.90 253.00 C 456.44 288.89 447.94 324.76 439.49 360.65 C 430.09 362.84 420.97 366.08 411.67 368.64 C 409.33 369.49 406.30 369.85 405.08 372.35 C 402.11 377.75 399.83 383.53 397.89 389.38 C 389.25 414.62 380.61 439.86 371.98 465.11 C 370.67 469.01 368.92 472.83 368.57 476.98 C 368.11 489.83 369.12 502.73 368.03 515.56 C 363.78 490.02 359.64 464.46 355.43 438.91 C 354.31 431.28 352.67 423.72 351.89 416.05 C 350.98 375.04 350.14 334.04 349.11 293.04 C 340.87 197.21 332.75 101.37 324.41 5.54 C 309.82 7.64 295.10 8.91 280.55 11.32 C 285.82 63.89 290.18 116.55 295.44 169.12 C 303.66 246.27 311.85 323.42 320.07 400.57 C 322.97 428.84 326.73 457.00 329.83 485.25 C 327.84 482.05 326.25 478.65 324.86 475.15 C 309.74 442.30 294.46 409.52 279.46 376.61 C 278.70 375.14 277.85 373.62 276.37 372.78 C 265.07 366.64 253.62 360.79 242.32 354.64 C 238.51 352.85 234.94 350.41 230.86 349.26 C 227.17 349.04 223.63 350.41 220.04 351.07 C 192.71 356.53 165.45 362.37 138.12 367.84 C 137.18 366.53 136.23 365.23 135.37 363.88 C 128.88 351.68 121.81 339.81 115.23 327.67 C 114.16 326.11 113.32 323.66 111.01 323.89 C 94.67 323.14 78.32 322.40 61.98 321.54 C 58.95 321.48 55.35 320.51 53.04 323.07 C 38.63 335.97 24.26 348.90 9.80 361.74 C 7.58 363.78 5.01 365.52 3.28 368.03 C 2.86 372.72 3.91 377.37 4.37 382.03 C 5.66 391.66 6.28 401.39 8.18 410.93 C 8.18 412.31 8.20 413.69 8.21 415.08 C 19.54 412.40 30.35 407.53 41.99 406.20 C 47.15 405.55 52.30 404.86 57.48 404.37 C 55.85 413.23 54.52 422.23 52.02 430.87 C 46.74 436.06 40.10 439.69 34.31 444.30 C 29.57 448.22 23.38 450.77 20.23 456.30 C 13.50 468.00 7.10 479.90 0.00 491.38 L 0.00 0.00 Z"/>
<path fill="#d48d48" d=" M 489.56 0.00 L 533.37 0.00 C 530.49 34.67 528.00 69.38 525.03 104.04 C 516.13 147.95 505.50 191.51 497.50 235.60 C 490.05 274.80 482.63 314.02 475.15 353.21 C 474.15 357.47 473.44 361.78 472.65 366.08 C 468.96 385.68 465.11 405.25 461.55 424.87 C 455.07 467.61 448.40 510.32 442.06 553.08 C 440.61 562.05 439.35 571.06 437.92 580.04 C 437.62 581.73 437.32 583.44 437.02 585.14 C 425.23 585.94 413.47 587.11 401.68 587.72 C 402.33 582.87 402.98 578.03 403.55 573.17 C 405.07 561.22 406.60 549.27 408.20 537.34 C 411.79 510.25 415.24 483.15 418.77 456.06 C 419.79 448.73 420.35 441.32 422.18 434.13 C 426.67 415.39 431.03 396.63 435.50 377.89 C 436.91 372.16 438.28 366.42 439.49 360.65 C 447.94 324.76 456.44 288.89 464.90 253.00 C 465.96 248.36 467.34 243.76 467.80 239.00 C 475.07 159.34 482.25 79.66 489.56 0.00 Z"/>
<path fill="#ffffff" d=" M 533.37 0.00 L 811.00 0.00 L 811.00 579.57 C 804.24 583.05 797.28 586.13 790.39 589.33 C 781.09 594.31 770.86 597.12 761.17 601.21 C 741.66 608.71 722.14 616.19 702.62 623.71 C 696.69 625.95 690.86 628.48 684.76 630.23 C 700.42 588.85 716.43 547.61 732.18 506.27 C 733.57 502.50 735.31 498.88 736.74 495.13 C 738.87 489.46 740.92 483.76 743.22 478.16 C 744.09 475.68 745.86 472.69 743.68 470.37 C 739.85 465.50 735.57 460.96 732.40 455.59 C 715.05 432.00 697.21 408.76 679.80 385.22 C 655.74 349.24 631.75 313.21 607.75 277.20 C 580.43 295.37 553.14 313.57 525.84 331.77 C 521.73 334.48 517.79 337.72 512.91 338.96 C 500.68 342.44 488.47 346.01 476.25 349.53 C 475.87 350.75 475.49 351.97 475.15 353.21 C 482.63 314.02 490.05 274.80 497.50 235.60 C 505.50 191.51 516.13 147.95 525.03 104.04 C 528.00 69.38 530.49 34.67 533.37 0.00 Z"/>
<path fill="#d48d48" d=" M 280.55 11.32 C 295.10 8.91 309.82 7.64 324.41 5.54 C 332.75 101.37 340.87 197.21 349.11 293.04 C 350.14 334.04 350.98 375.04 351.89 416.05 C 352.67 423.72 354.31 431.28 355.43 438.91 C 359.64 464.46 363.78 490.02 368.03 515.56 C 368.36 518.74 368.97 521.89 369.55 525.04 C 372.02 540.47 374.66 555.88 377.08 571.32 C 377.80 575.88 378.57 580.43 379.30 584.99 C 366.60 583.38 353.95 581.42 341.27 579.65 C 340.80 576.34 340.38 573.02 340.03 569.70 C 338.95 560.35 337.85 551.00 336.66 541.66 C 334.24 522.87 332.37 504.01 329.83 485.25 C 326.73 457.00 322.97 428.84 320.07 400.57 C 311.85 323.42 303.66 246.27 295.44 169.12 C 290.18 116.55 285.82 63.89 280.55 11.32 Z"/>
<path fill="#a8a8a8" d=" M 525.84 331.77 C 553.14 313.57 580.43 295.37 607.75 277.20 C 631.75 313.21 655.74 349.24 679.80 385.22 C 697.21 408.76 715.05 432.00 732.40 455.59 C 735.57 460.96 739.85 465.50 743.68 470.37 C 745.86 472.69 744.09 475.68 743.22 478.16 C 740.92 483.76 738.87 489.46 736.74 495.13 C 734.84 491.07 735.61 486.54 735.65 482.23 C 735.01 483.30 734.39 484.37 733.77 485.45 C 724.19 471.87 715.35 457.78 706.06 444.00 C 672.31 393.12 638.72 342.14 604.91 291.31 C 574.44 311.65 544.18 332.32 513.82 352.83 C 509.61 355.51 504.63 356.44 499.96 357.97 C 490.84 360.61 481.91 363.94 472.65 366.08 C 473.44 361.78 474.15 357.47 475.15 353.21 C 475.49 351.97 475.87 350.75 476.25 349.53 C 488.47 346.01 500.68 342.44 512.91 338.96 C 517.79 337.72 521.73 334.48 525.84 331.77 Z"/>
<path fill="#d4d4d4" d=" M 513.82 352.83 C 544.18 332.32 574.44 311.65 604.91 291.31 C 638.72 342.14 672.31 393.12 706.06 444.00 C 715.35 457.78 724.19 471.87 733.77 485.45 C 734.39 484.37 735.01 483.30 735.65 482.23 C 735.61 486.54 734.84 491.07 736.74 495.13 C 735.31 498.88 733.57 502.50 732.18 506.27 C 716.43 547.61 700.42 588.85 684.76 630.23 C 683.82 632.64 682.82 635.03 681.85 637.43 C 622.85 616.81 563.98 595.76 505.04 574.99 C 484.26 567.14 463.67 558.84 442.87 551.06 C 442.67 551.57 442.27 552.58 442.06 553.08 C 448.40 510.32 455.07 467.61 461.55 424.87 C 465.11 405.25 468.96 385.68 472.65 366.08 C 481.91 363.94 490.84 360.61 499.96 357.97 C 504.63 356.44 509.61 355.51 513.82 352.83 Z"/>
<path fill="#d4d4d4" d=" M 53.04 323.07 C 55.35 320.51 58.95 321.48 61.98 321.54 C 78.32 322.40 94.67 323.14 111.01 323.89 C 113.32 323.66 114.16 326.11 115.23 327.67 C 121.81 339.81 128.88 351.68 135.37 363.88 C 134.38 365.14 134.08 367.28 132.42 367.85 C 124.07 355.66 116.73 342.76 108.57 330.44 C 107.46 328.46 105.04 328.44 103.06 328.26 C 90.03 327.55 77.00 326.76 63.98 325.81 C 61.38 325.49 58.67 325.86 56.68 327.67 C 40.23 340.61 23.46 353.14 7.07 366.15 C 7.21 375.88 8.23 385.56 8.70 395.27 C 8.87 400.48 10.51 405.96 8.18 410.93 C 6.28 401.39 5.66 391.66 4.37 382.03 C 3.91 377.37 2.86 372.72 3.28 368.03 C 5.01 365.52 7.58 363.78 9.80 361.74 C 24.26 348.90 38.63 335.97 53.04 323.07 Z"/>
<path fill="#ffffec" d=" M 56.68 327.67 C 58.67 325.86 61.38 325.49 63.98 325.81 C 77.00 326.76 90.03 327.55 103.06 328.26 C 105.04 328.44 107.46 328.46 108.57 330.44 C 116.73 342.76 124.07 355.66 132.42 367.85 C 134.08 367.28 134.38 365.14 135.37 363.88 C 136.23 365.23 137.18 366.53 138.12 367.84 C 165.45 362.37 192.71 356.53 220.04 351.07 C 223.63 350.41 227.17 349.04 230.86 349.26 C 234.94 350.41 238.51 352.85 242.32 354.64 C 253.62 360.79 265.07 366.64 276.37 372.78 C 277.85 373.62 278.70 375.14 279.46 376.61 C 294.46 409.52 309.74 442.30 324.86 475.15 C 326.25 478.65 327.84 482.05 329.83 485.25 C 332.37 504.01 334.24 522.87 336.66 541.66 C 332.30 541.50 327.85 541.21 323.60 542.41 C 277.82 555.25 231.96 567.80 186.18 580.68 C 182.96 581.47 179.58 583.15 176.28 581.79 C 147.83 572.57 119.41 563.29 90.97 554.06 C 83.65 551.91 76.56 549.02 69.16 547.16 C 69.34 547.75 69.71 548.95 69.90 549.54 C 72.05 556.35 73.59 563.33 75.82 570.12 C 80.13 582.30 82.67 595.02 86.78 607.28 C 88.37 611.36 88.24 615.77 87.55 620.03 C 85.76 632.92 84.50 645.89 82.84 658.80 C 82.02 658.56 81.20 658.32 80.38 658.09 C 79.83 656.72 79.21 655.38 78.51 654.09 C 79.56 652.55 80.60 651.02 81.65 649.50 C 69.84 633.01 57.15 617.18 44.94 600.99 C 40.31 594.62 34.78 588.82 31.31 581.67 C 24.68 568.38 17.75 555.24 10.91 542.05 C 9.43 539.25 8.22 536.26 7.96 533.07 C 6.84 521.39 5.71 509.70 4.44 498.02 C 4.18 495.13 3.77 491.98 5.38 489.39 C 10.61 480.26 15.82 471.12 20.90 461.91 C 22.16 459.61 23.65 457.39 25.68 455.70 C 35.88 447.25 46.30 439.06 56.37 430.46 C 56.77 421.75 57.62 413.07 57.62 404.35 L 57.48 404.37 C 52.30 404.86 47.15 405.55 41.99 406.20 C 30.35 407.53 19.54 412.40 8.21 415.08 C 8.20 413.69 8.18 412.31 8.18 410.93 C 10.51 405.96 8.87 400.48 8.70 395.27 C 8.23 385.56 7.21 375.88 7.07 366.15 C 23.46 353.14 40.23 340.61 56.68 327.67 Z"/>
<path fill="#a8a8a8" d=" M 411.67 368.64 C 420.97 366.08 430.09 362.84 439.49 360.65 C 438.28 366.42 436.91 372.16 435.50 377.89 C 422.95 381.69 410.49 385.78 397.89 389.38 C 399.83 383.53 402.11 377.75 405.08 372.35 C 406.30 369.85 409.33 369.49 411.67 368.64 Z"/>
<path fill="#d4d4d4" d=" M 397.89 389.38 C 410.49 385.78 422.95 381.69 435.50 377.89 C 431.03 396.63 426.67 415.39 422.18 434.13 C 420.35 441.32 419.79 448.73 418.77 456.06 C 415.24 483.15 411.79 510.25 408.20 537.34 C 395.21 532.83 382.64 527.18 369.61 522.79 C 369.59 523.35 369.56 524.48 369.55 525.04 C 368.97 521.89 368.36 518.74 368.03 515.56 C 369.12 502.73 368.11 489.83 368.57 476.98 C 368.92 472.83 370.67 469.01 371.98 465.11 C 380.61 439.86 389.25 414.62 397.89 389.38 Z"/>
<path fill="#d4d4d4" d=" M 57.48 404.37 L 57.62 404.35 C 57.62 413.07 56.77 421.75 56.37 430.46 C 46.30 439.06 35.88 447.25 25.68 455.70 C 23.65 457.39 22.16 459.61 20.90 461.91 C 15.82 471.12 10.61 480.26 5.38 489.39 C 3.77 491.98 4.18 495.13 4.44 498.02 C 5.71 509.70 6.84 521.39 7.96 533.07 C 8.22 536.26 9.43 539.25 10.91 542.05 C 17.75 555.24 24.68 568.38 31.31 581.67 C 34.78 588.82 40.31 594.62 44.94 600.99 C 57.15 617.18 69.84 633.01 81.65 649.50 C 80.60 651.02 79.56 652.55 78.51 654.09 C 62.23 632.46 46.27 610.59 30.08 588.89 C 26.00 583.65 23.51 577.46 20.49 571.60 C 15.79 562.27 11.16 552.89 6.44 543.57 C 5.08 540.79 3.40 538.08 2.80 535.01 C 1.57 523.98 2.10 512.76 0.00 501.84 L 0.00 491.38 C 7.10 479.90 13.50 468.00 20.23 456.30 C 23.38 450.77 29.57 448.22 34.31 444.30 C 40.10 439.69 46.74 436.06 52.02 430.87 C 54.52 422.23 55.85 413.23 57.48 404.37 Z"/>
<path fill="#ffffff" d=" M 0.00 501.84 C 2.10 512.76 1.57 523.98 2.80 535.01 C 3.40 538.08 5.08 540.79 6.44 543.57 C 11.16 552.89 15.79 562.27 20.49 571.60 C 23.51 577.46 26.00 583.65 30.08 588.89 C 46.27 610.59 62.23 632.46 78.51 654.09 C 79.21 655.38 79.83 656.72 80.38 658.09 C 80.51 660.85 80.46 663.61 80.45 666.39 C 75.70 670.09 69.59 671.25 64.80 674.85 C 46.13 687.28 27.12 699.19 8.55 711.76 C 40.41 731.78 72.22 751.88 104.10 771.87 C 107.58 787.61 111.50 803.25 115.14 818.95 C 116.16 823.64 116.34 828.44 116.72 833.22 C 119.07 861.48 121.44 889.74 123.78 918.01 C 126.56 955.38 130.93 992.60 134.61 1029.89 C 135.40 1036.21 138.14 1042.04 139.97 1048.09 C 146.09 1066.61 152.37 1085.07 158.41 1103.61 C 159.04 1105.44 159.77 1107.46 161.68 1108.34 C 179.88 1118.44 198.46 1127.89 216.48 1138.32 C 218.89 1139.78 221.34 1141.23 224.01 1142.23 C 223.82 1143.46 223.64 1144.71 223.46 1145.98 C 274.15 1173.21 325.02 1200.12 375.74 1227.28 C 378.86 1229.03 382.04 1230.73 385.48 1231.79 C 386.04 1232.51 386.60 1233.24 387.16 1234.00 L 0.00 1234.00 L 0.00 501.84 Z"/>
<path fill="#ffffec" d=" M 369.61 522.79 C 382.64 527.18 395.21 532.83 408.20 537.34 C 406.60 549.27 405.07 561.22 403.55 573.17 C 394.73 572.45 385.86 572.57 377.08 571.32 C 374.66 555.88 372.02 540.47 369.55 525.04 C 369.56 524.48 369.59 523.35 369.61 522.79 Z"/>
<path fill="#a8a8a8" d=" M 323.60 542.41 C 327.85 541.21 332.30 541.50 336.66 541.66 C 337.85 551.00 338.95 560.35 340.03 569.70 C 333.03 569.01 325.77 569.51 319.09 566.95 C 308.06 563.41 297.25 559.06 285.98 556.33 C 288.20 558.26 290.46 560.17 292.58 562.22 C 288.51 560.68 284.55 557.10 279.93 558.52 C 255.99 564.31 232.07 570.19 208.12 575.97 C 199.61 578.24 190.90 579.78 182.47 582.38 C 187.39 584.28 192.64 585.05 197.74 586.28 C 208.00 588.67 218.30 590.86 228.53 593.38 C 229.17 593.52 229.82 593.67 230.47 593.81 C 235.32 594.99 240.59 595.26 244.87 598.09 C 249.51 601.10 254.22 604.02 258.80 607.13 C 261.19 608.77 263.64 610.33 266.16 611.79 C 275.33 616.61 281.19 625.49 288.53 632.49 C 293.68 637.32 298.18 642.78 303.28 647.66 C 308.07 652.22 312.18 657.44 317.03 661.95 C 330.56 675.76 343.61 690.04 357.61 703.39 C 364.06 708.96 369.64 715.43 375.99 721.10 C 381.92 726.46 387.17 732.53 393.19 737.80 C 396.00 740.26 398.61 742.94 401.18 745.66 C 401.82 746.33 402.48 747.00 403.15 747.66 C 409.99 754.06 416.82 760.48 423.28 767.26 C 424.02 767.98 424.78 768.70 425.56 769.40 C 429.94 773.00 433.75 777.21 437.78 781.19 C 440.50 784.16 444.97 784.53 448.69 783.66 C 452.98 782.64 457.22 781.42 461.49 780.36 C 461.80 780.82 462.42 781.74 462.72 782.19 C 471.91 776.59 480.95 770.74 490.34 765.49 C 503.43 759.48 516.66 753.77 529.81 747.89 C 540.13 743.16 550.60 738.75 560.95 734.12 C 579.53 726.47 597.00 716.47 615.23 708.12 C 653.75 694.63 692.32 681.31 730.85 667.87 C 734.80 666.47 738.95 664.28 743.23 665.71 C 753.01 668.34 762.93 670.42 772.63 673.36 C 758.15 677.50 743.77 681.96 729.21 685.77 C 726.79 686.31 724.39 686.89 722.03 687.58 C 694.00 695.85 665.89 703.82 637.82 711.94 C 627.82 714.45 618.52 718.99 608.95 722.74 C 593.78 729.00 578.47 734.94 563.41 741.46 C 534.21 756.06 504.73 770.12 475.51 784.69 C 471.12 786.90 466.37 788.49 462.31 791.29 C 461.17 794.40 461.28 797.79 460.90 801.05 C 458.93 821.70 456.91 842.35 454.92 863.00 C 453.39 880.45 450.72 897.79 447.71 915.03 C 442.55 959.91 434.58 1004.39 427.73 1049.02 C 426.68 1054.28 426.03 1059.65 426.90 1065.00 C 428.34 1081.32 429.62 1097.66 431.02 1113.98 C 431.41 1118.29 432.01 1122.64 431.45 1126.97 C 429.23 1143.33 427.02 1159.69 424.91 1176.06 C 423.66 1184.47 424.70 1192.99 423.67 1201.42 C 423.41 1204.77 424.16 1208.06 425.15 1211.25 L 425.13 1211.96 C 417.88 1216.37 410.85 1221.13 403.56 1225.47 C 399.96 1227.58 396.75 1230.38 392.86 1231.97 C 394.93 1226.23 397.82 1220.85 400.17 1215.24 C 399.57 1213.17 399.15 1211.01 399.57 1208.88 C 403.72 1182.83 407.45 1156.72 411.54 1130.67 C 413.32 1121.17 411.76 1111.53 411.65 1101.97 C 411.22 1085.99 409.99 1070.00 410.02 1054.02 C 418.02 1002.05 426.24 950.11 434.32 898.15 C 435.51 890.08 437.21 882.06 437.47 873.88 C 438.06 851.20 438.79 828.53 439.44 805.86 C 439.89 798.79 439.25 791.65 440.66 784.66 C 438.55 783.76 436.43 782.69 434.08 782.79 C 425.38 782.72 416.73 781.66 408.05 781.11 C 391.37 779.71 374.63 778.80 357.98 776.96 C 339.67 776.52 321.36 775.60 303.05 774.71 C 298.61 774.26 295.26 777.61 291.76 779.76 C 281.51 786.33 271.29 792.93 261.03 799.47 C 272.47 816.51 283.97 833.50 295.29 850.62 C 302.58 860.76 309.26 871.32 316.24 881.68 C 319.98 889.02 325.46 895.22 330.32 901.82 C 339.45 914.34 348.42 926.98 357.70 939.39 C 356.97 942.16 355.94 944.88 354.19 947.19 C 344.87 960.37 336.79 974.38 327.32 987.45 C 322.07 993.40 318.24 1000.39 313.83 1006.95 C 284.63 1052.33 255.51 1097.77 225.91 1142.89 C 225.44 1142.72 224.48 1142.39 224.01 1142.23 C 221.34 1141.23 218.89 1139.78 216.48 1138.32 C 220.24 1131.34 225.17 1125.10 229.42 1118.42 C 259.36 1074.32 289.14 1030.11 319.03 985.97 C 328.08 972.27 337.66 958.92 346.50 945.08 C 327.58 914.80 308.74 884.45 289.84 854.15 C 278.95 836.90 268.49 819.38 257.35 802.30 C 255.88 803.24 254.42 804.20 252.96 805.16 C 241.56 792.82 230.63 780.05 219.35 767.61 C 216.31 764.34 213.72 760.70 211.29 756.97 C 211.73 758.65 212.16 760.31 212.59 762.01 C 203.93 753.10 196.37 743.20 188.15 733.90 C 173.88 717.12 159.46 700.46 145.38 683.51 C 142.39 679.87 138.65 676.94 135.48 673.46 C 124.66 661.32 113.95 649.10 103.03 637.05 C 97.67 631.54 93.83 624.63 87.55 620.03 C 88.24 615.77 88.37 611.36 86.78 607.28 C 82.67 595.02 80.13 582.30 75.82 570.12 C 75.78 569.39 75.71 567.92 75.68 567.19 C 83.15 576.95 89.42 587.56 96.41 597.67 C 103.84 608.83 111.34 619.95 118.71 631.15 C 121.68 635.81 126.10 639.20 130.09 642.91 C 147.35 658.66 164.60 674.42 181.87 690.15 C 185.70 693.72 188.56 698.15 191.72 702.29 C 213.28 731.09 234.95 759.79 256.44 788.64 C 257.14 789.48 257.87 790.38 258.88 790.91 C 262.13 789.28 264.89 786.89 267.86 784.83 C 279.38 776.69 290.95 768.61 302.42 760.38 C 303.85 759.42 305.40 758.29 307.22 758.55 C 345.10 761.83 382.97 765.34 420.87 768.33 C 408.93 756.85 396.29 746.12 384.13 734.89 C 364.35 716.99 344.44 699.21 324.75 681.22 C 303.93 659.03 283.41 636.58 262.66 614.33 C 259.74 611.24 257.23 607.26 252.88 606.09 C 191.91 587.15 130.85 568.51 69.90 549.54 C 69.71 548.95 69.34 547.75 69.16 547.16 C 76.56 549.02 83.65 551.91 90.97 554.06 C 119.41 563.29 147.83 572.57 176.28 581.79 C 179.58 583.15 182.96 581.47 186.18 580.68 C 231.96 567.80 277.82 555.25 323.60 542.41 Z"/>
<path fill="#d4d4d4" d=" M 69.90 549.54 C 130.85 568.51 191.91 587.15 252.88 606.09 C 257.23 607.26 259.74 611.24 262.66 614.33 C 283.41 636.58 303.93 659.03 324.75 681.22 C 344.44 699.21 364.35 716.99 384.13 734.89 C 396.29 746.12 408.93 756.85 420.87 768.33 C 382.97 765.34 345.10 761.83 307.22 758.55 C 305.40 758.29 303.85 759.42 302.42 760.38 C 290.95 768.61 279.38 776.69 267.86 784.83 C 264.89 786.89 262.13 789.28 258.88 790.91 C 257.87 790.38 257.14 789.48 256.44 788.64 C 234.95 759.79 213.28 731.09 191.72 702.29 C 188.56 698.15 185.70 693.72 181.87 690.15 C 164.60 674.42 147.35 658.66 130.09 642.91 C 126.10 639.20 121.68 635.81 118.71 631.15 C 111.34 619.95 103.84 608.83 96.41 597.67 C 89.42 587.56 83.15 576.95 75.68 567.19 C 75.71 567.92 75.78 569.39 75.82 570.12 C 73.59 563.33 72.05 556.35 69.90 549.54 Z"/>
<path fill="#ffffec" d=" M 442.87 551.06 C 463.67 558.84 484.26 567.14 505.04 574.99 C 563.98 595.76 622.85 616.81 681.85 637.43 C 682.82 635.03 683.82 632.64 684.76 630.23 C 690.86 628.48 696.69 625.95 702.62 623.71 C 722.14 616.19 741.66 608.71 761.17 601.21 C 770.86 597.12 781.09 594.31 790.39 589.33 C 797.28 586.13 804.24 583.05 811.00 579.57 L 811.00 581.54 C 805.18 595.57 800.76 610.12 795.49 624.36 C 789.98 640.53 783.96 656.53 778.55 672.75 C 776.57 672.94 774.59 673.16 772.63 673.36 C 762.93 670.42 753.01 668.34 743.23 665.71 C 738.95 664.28 734.80 666.47 730.85 667.87 C 692.32 681.31 653.75 694.63 615.23 708.12 C 597.00 716.47 579.53 726.47 560.95 734.12 C 560.37 734.13 559.21 734.13 558.63 734.13 C 571.88 722.82 585.90 712.46 599.42 701.48 C 612.74 691.05 625.72 680.18 639.52 670.38 C 637.67 670.23 635.83 670.11 634.02 669.70 C 635.81 667.12 639.54 667.20 642.26 666.10 C 642.29 666.70 642.36 667.91 642.40 668.51 C 646.51 665.99 649.10 661.79 652.95 658.98 C 660.07 653.35 667.49 648.06 674.12 641.87 C 663.25 648.34 653.29 656.21 642.83 663.31 C 630.16 658.76 617.34 654.66 604.58 650.39 C 599.15 648.67 594.89 644.74 590.06 641.90 C 582.15 637.14 574.33 632.25 566.44 627.48 C 561.84 624.73 557.49 621.44 552.39 619.66 C 539.98 615.35 527.54 611.14 515.16 606.74 C 512.61 605.88 509.96 605.34 507.35 604.72 C 507.14 604.55 506.71 604.20 506.49 604.02 C 503.76 601.20 500.91 598.49 497.86 596.02 C 495.81 596.88 493.77 597.77 491.78 598.76 L 491.55 598.87 C 473.85 592.11 455.75 586.43 437.92 580.04 C 439.35 571.06 440.61 562.05 442.06 553.08 C 442.27 552.58 442.67 551.57 442.87 551.06 Z"/>
<path fill="#d4d4d4" d=" M 285.98 556.33 C 297.25 559.06 308.06 563.41 319.09 566.95 C 325.77 569.51 333.03 569.01 340.03 569.70 C 340.38 573.02 340.80 576.34 341.27 579.65 C 353.95 581.42 366.60 583.38 379.30 584.99 C 378.57 580.43 377.80 575.88 377.08 571.32 C 385.86 572.57 394.73 572.45 403.55 573.17 C 402.98 578.03 402.33 582.87 401.68 587.72 C 413.47 587.11 425.23 585.94 437.02 585.14 C 437.32 583.44 437.62 581.73 437.92 580.04 C 455.75 586.43 473.85 592.11 491.55 598.87 C 483.72 602.82 475.57 606.10 467.63 609.83 C 459.78 604.24 452.40 598.03 444.73 592.21 C 442.51 590.51 439.66 590.18 436.98 589.83 C 431.02 589.14 425.06 587.90 419.03 588.40 C 410.16 589.05 401.30 589.73 392.43 590.32 C 387.78 590.31 383.15 589.74 378.54 589.21 C 367.46 588.33 356.49 584.34 345.32 586.30 C 340.88 586.77 336.46 587.50 332.00 587.68 C 329.65 587.99 327.80 586.31 325.98 585.13 C 318.05 579.35 309.93 573.82 301.98 568.08 C 298.98 565.92 295.86 563.92 292.58 562.22 C 290.46 560.17 288.20 558.26 285.98 556.33 Z"/>
<path fill="#ffffff" d=" M 279.93 558.52 C 284.55 557.10 288.51 560.68 292.58 562.22 C 295.86 563.92 298.98 565.92 301.98 568.08 C 309.93 573.82 318.05 579.35 325.98 585.13 C 327.80 586.31 329.65 587.99 332.00 587.68 C 336.46 587.50 340.88 586.77 345.32 586.30 C 356.49 584.34 367.46 588.33 378.54 589.21 C 376.96 590.30 375.39 591.40 373.83 592.52 C 378.48 595.88 384.41 596.32 389.97 596.26 C 392.60 596.33 395.02 595.26 397.32 594.11 C 395.70 592.83 394.06 591.58 392.43 590.32 C 401.30 589.73 410.16 589.05 419.03 588.40 C 425.06 587.90 431.02 589.14 436.98 589.83 C 439.66 590.18 442.51 590.51 444.73 592.21 C 452.40 598.03 459.78 604.24 467.63 609.83 C 475.57 606.10 483.72 602.82 491.55 598.87 L 491.78 598.76 C 496.62 600.68 501.61 602.22 506.49 604.02 C 506.71 604.20 507.14 604.55 507.35 604.72 C 514.31 611.13 521.84 616.87 528.89 623.18 C 532.90 626.41 536.32 630.54 541.07 632.73 C 571.79 644.91 602.89 656.23 632.96 669.98 C 602.83 691.61 572.22 712.58 541.89 733.92 C 535.79 738.29 529.46 742.34 523.57 747.00 C 525.64 747.29 527.73 747.58 529.81 747.89 C 516.66 753.77 503.43 759.48 490.34 765.49 C 480.95 770.74 471.91 776.59 462.72 782.19 C 462.42 781.74 461.80 780.82 461.49 780.36 C 457.22 781.42 452.98 782.64 448.69 783.66 C 444.97 784.53 440.50 784.16 437.78 781.19 C 433.75 777.21 429.94 773.00 425.56 769.40 C 432.73 766.08 438.60 760.50 443.01 754.01 C 444.26 752.24 444.57 750.07 444.96 748.01 C 443.14 748.39 441.25 748.66 439.60 749.56 C 432.54 753.67 427.13 760.13 423.28 767.26 C 416.82 760.48 409.99 754.06 403.15 747.66 C 410.43 743.83 417.04 738.49 421.38 731.42 C 422.40 729.79 422.58 727.83 422.94 726.00 C 420.89 726.44 418.77 726.81 416.96 727.93 C 410.13 732.18 404.80 738.52 401.18 745.66 C 398.61 742.94 396.00 740.26 393.19 737.80 C 387.17 732.53 381.92 726.46 375.99 721.10 C 369.64 715.43 364.06 708.96 357.61 703.39 C 343.61 690.04 330.56 675.76 317.03 661.95 C 312.18 657.44 308.07 652.22 303.28 647.66 C 298.18 642.78 293.68 637.32 288.53 632.49 C 281.19 625.49 275.33 616.61 266.16 611.79 C 269.15 606.88 274.47 602.91 274.45 596.67 C 267.89 597.60 263.12 602.55 258.80 607.13 C 254.22 604.02 249.51 601.10 244.87 598.09 C 240.59 595.26 235.32 594.99 230.47 593.81 C 233.19 591.96 235.96 590.18 238.83 588.56 C 240.58 589.10 242.54 590.47 244.35 589.32 C 247.41 587.90 248.78 584.66 249.91 581.70 C 248.99 581.11 248.08 580.53 247.17 579.96 C 248.24 577.40 249.17 574.79 249.84 572.10 C 247.61 572.54 245.29 572.99 243.37 574.30 C 236.48 578.77 230.55 585.24 228.53 593.38 C 218.30 590.86 208.00 588.67 197.74 586.28 C 192.64 585.05 187.39 584.28 182.47 582.38 C 190.90 579.78 199.61 578.24 208.12 575.97 C 232.07 570.19 255.99 564.31 279.93 558.52 Z"/>
<path fill="#ebebca" d=" M 243.37 574.30 C 245.29 572.99 247.61 572.54 249.84 572.10 C 249.17 574.79 248.24 577.40 247.17 579.96 C 248.08 580.53 248.99 581.11 249.91 581.70 C 248.78 584.66 247.41 587.90 244.35 589.32 C 242.54 590.47 240.58 589.10 238.83 588.56 C 235.96 590.18 233.19 591.96 230.47 593.81 C 229.82 593.67 229.17 593.52 228.53 593.38 C 230.55 585.24 236.48 578.77 243.37 574.30 Z"/>
<path fill="#ebebca" d=" M 297.26 572.35 C 298.74 571.92 299.37 573.74 298.71 574.89 C 297.41 579.26 294.11 582.67 291.01 585.87 C 287.60 588.87 283.95 592.30 279.23 592.83 C 277.67 590.53 279.79 588.00 280.93 586.02 C 285.10 580.28 290.31 574.54 297.26 572.35 Z"/>
<path fill="#ffffff" d=" M 795.49 624.36 C 800.76 610.12 805.18 595.57 811.00 581.54 L 811.00 1234.00 L 387.74 1234.00 C 389.38 1233.17 391.14 1232.62 392.86 1231.97 C 396.75 1230.38 399.96 1227.58 403.56 1225.47 C 410.85 1221.13 417.88 1216.37 425.13 1211.96 L 425.15 1211.25 C 425.35 1210.15 425.58 1209.07 425.82 1208.01 C 502.84 1161.93 580.06 1116.18 657.13 1070.19 C 660.00 1068.39 663.29 1067.13 665.72 1064.70 C 667.80 1060.31 668.20 1055.35 669.46 1050.69 C 671.54 1042.60 672.51 1034.29 673.75 1026.04 C 686.14 941.06 698.46 856.06 710.87 771.07 C 712.49 757.53 716.34 744.41 719.10 731.08 C 722.45 715.97 726.08 700.92 729.21 685.77 C 743.77 681.96 758.15 677.50 772.63 673.36 C 774.59 673.16 776.57 672.94 778.55 672.75 C 783.96 656.53 789.98 640.53 795.49 624.36 Z"/>
<path fill="#ebebca" d=" M 378.54 589.21 C 383.15 589.74 387.78 590.31 392.43 590.32 C 394.06 591.58 395.70 592.83 397.32 594.11 C 395.02 595.26 392.60 596.33 389.97 596.26 C 384.41 596.32 378.48 595.88 373.83 592.52 C 375.39 591.40 376.96 590.30 378.54 589.21 Z"/>
<path fill="#ebebca" d=" M 313.29 599.35 C 316.94 595.85 320.90 592.28 325.93 591.00 C 326.11 592.57 326.66 594.25 325.68 595.70 C 322.38 601.74 317.32 606.77 311.59 610.54 C 309.96 611.79 307.89 611.81 305.94 611.96 C 306.42 606.87 310.00 602.93 313.29 599.35 Z"/>
<path fill="#ebebca" d=" M 353.06 604.03 C 351.76 598.71 357.12 594.46 361.96 594.00 C 363.33 599.34 357.90 603.59 353.06 604.03 Z"/>
<path fill="#d4d4d4" d=" M 491.78 598.76 C 493.77 597.77 495.81 596.88 497.86 596.02 C 500.91 598.49 503.76 601.20 506.49 604.02 C 501.61 602.22 496.62 600.68 491.78 598.76 Z"/>
<path fill="#ebebca" d=" M 258.80 607.13 C 263.12 602.55 267.89 597.60 274.45 596.67 C 274.47 602.91 269.15 606.88 266.16 611.79 C 263.64 610.33 261.19 608.77 258.80 607.13 Z"/>
<path fill="#ebebca" d=" M 369.93 605.93 C 373.18 603.19 376.71 599.95 381.19 599.77 C 381.89 602.32 380.06 604.66 379.18 606.95 C 386.55 606.31 395.10 605.27 401.32 610.16 C 399.60 611.55 397.52 612.36 395.31 612.44 C 389.27 612.79 382.89 612.23 377.68 608.90 C 372.88 613.51 368.14 619.95 360.88 620.15 C 361.62 614.31 365.89 609.84 369.93 605.93 Z"/>
<path fill="#ebebca" d=" M 440.84 612.06 C 440.05 607.53 443.82 603.32 448.05 602.41 C 449.54 601.94 450.66 603.68 450.23 605.02 C 449.26 609.20 445.21 612.48 440.84 612.06 Z"/>
<path fill="#ebebca" d=" M 284.20 614.91 C 283.33 609.76 288.88 603.58 294.10 605.99 C 293.09 610.76 289.38 614.99 284.20 614.91 Z"/>
<path fill="#d4d4d4" d=" M 507.35 604.72 C 509.96 605.34 512.61 605.88 515.16 606.74 C 527.54 611.14 539.98 615.35 552.39 619.66 C 557.49 621.44 561.84 624.73 566.44 627.48 C 574.33 632.25 582.15 637.14 590.06 641.90 C 594.89 644.74 599.15 648.67 604.58 650.39 C 617.34 654.66 630.16 658.76 642.83 663.31 C 653.29 656.21 663.25 648.34 674.12 641.87 C 667.49 648.06 660.07 653.35 652.95 658.98 C 649.10 661.79 646.51 665.99 642.40 668.51 C 642.36 667.91 642.29 666.70 642.26 666.10 C 639.54 667.20 635.81 667.12 634.02 669.70 C 635.83 670.11 637.67 670.23 639.52 670.38 C 625.72 680.18 612.74 691.05 599.42 701.48 C 585.90 712.46 571.88 722.82 558.63 734.13 C 559.21 734.13 560.37 734.13 560.95 734.12 C 550.60 738.75 540.13 743.16 529.81 747.89 C 527.73 747.58 525.64 747.29 523.57 747.00 C 529.46 742.34 535.79 738.29 541.89 733.92 C 572.22 712.58 602.83 691.61 632.96 669.98 C 602.89 656.23 571.79 644.91 541.07 632.73 C 536.32 630.54 532.90 626.41 528.89 623.18 C 521.84 616.87 514.31 611.13 507.35 604.72 Z"/>
<path fill="#ebebca" d=" M 403.82 615.80 C 407.55 612.16 411.78 608.29 417.23 607.83 C 417.07 609.58 417.08 611.47 416.09 613.02 C 412.71 618.79 407.83 623.67 402.11 627.13 C 400.47 628.23 398.50 628.56 396.55 628.48 C 396.76 623.29 400.54 619.41 403.82 615.80 Z"/>
<path fill="#ebebca" d=" M 451.47 612.44 C 454.25 610.07 457.49 608.09 461.22 607.83 C 461.24 610.12 460.71 612.40 459.31 614.25 C 455.41 619.98 450.28 625.15 443.97 628.15 C 442.40 629.25 439.80 628.23 440.83 626.03 C 442.79 620.52 447.15 616.21 451.47 612.44 Z"/>
<path fill="#ebebca" d=" M 489.93 626.04 C 493.50 622.85 497.28 619.12 502.35 618.83 C 502.23 620.88 501.93 623.00 500.70 624.73 C 497.23 630.09 492.57 634.72 487.20 638.17 C 485.61 639.28 483.72 639.69 481.82 639.32 C 482.37 633.89 486.37 629.81 489.93 626.04 Z"/>
<path fill="#d4d4d4" d=" M 82.84 658.80 C 84.50 645.89 85.76 632.92 87.55 620.03 C 93.83 624.63 97.67 631.54 103.03 637.05 C 113.95 649.10 124.66 661.32 135.48 673.46 C 138.65 676.94 142.39 679.87 145.38 683.51 C 159.46 700.46 173.88 717.12 188.15 733.90 C 196.37 743.20 203.93 753.10 212.59 762.01 C 212.16 760.31 211.73 758.65 211.29 756.97 C 213.72 760.70 216.31 764.34 219.35 767.61 C 230.63 780.05 241.56 792.82 252.96 805.16 C 254.42 804.20 255.88 803.24 257.35 802.30 C 268.49 819.38 278.95 836.90 289.84 854.15 C 308.74 884.45 327.58 914.80 346.50 945.08 C 337.66 958.92 328.08 972.27 319.03 985.97 C 289.14 1030.11 259.36 1074.32 229.42 1118.42 C 225.17 1125.10 220.24 1131.34 216.48 1138.32 C 198.46 1127.89 179.88 1118.44 161.68 1108.34 C 159.77 1107.46 159.04 1105.44 158.41 1103.61 C 152.37 1085.07 146.09 1066.61 139.97 1048.09 C 138.14 1042.04 135.40 1036.21 134.61 1029.89 C 130.93 992.60 126.56 955.38 123.78 918.01 C 121.44 889.74 119.07 861.48 116.72 833.22 C 116.34 828.44 116.16 823.64 115.14 818.95 C 111.50 803.25 107.58 787.61 104.10 771.87 C 121.78 782.71 139.11 794.10 156.84 804.87 C 158.78 795.88 160.47 786.84 162.33 777.84 C 140.61 765.75 118.45 754.45 96.63 742.54 C 95.75 734.93 93.37 727.62 91.78 720.15 C 89.40 711.08 87.95 701.74 84.94 692.85 C 83.86 690.30 82.21 687.83 82.39 684.96 C 82.61 678.31 82.83 671.67 82.58 665.02 C 81.87 665.47 81.16 665.92 80.45 666.39 C 80.46 663.61 80.51 660.85 80.38 658.09 C 81.20 658.32 82.02 658.56 82.84 658.80 Z"/>
<path fill="#ebebca" d=" M 329.37 623.30 C 331.01 622.09 333.10 622.17 335.04 621.99 C 334.18 628.54 328.81 633.19 324.27 637.50 C 325.11 638.10 325.95 638.72 326.80 639.34 C 326.03 643.59 322.25 648.29 317.56 647.53 C 316.62 645.92 317.80 643.93 317.91 642.19 C 316.61 642.00 315.32 641.82 314.03 641.65 C 314.45 639.71 314.94 637.73 316.16 636.12 C 319.68 631.06 324.14 626.60 329.37 623.30 Z"/>
<path fill="#ebebca" d=" M 448.29 627.22 C 452.79 624.74 458.19 625.31 463.07 626.06 C 466.02 626.44 468.81 627.61 471.20 629.38 C 469.81 630.33 468.36 631.34 466.63 631.48 C 461.41 632.04 455.98 631.76 450.99 630.02 C 449.76 629.44 447.85 628.98 448.29 627.22 Z"/>
<path fill="#ebebca" d=" M 377.88 636.83 C 380.55 634.72 383.56 632.56 387.16 632.82 C 386.74 637.56 383.38 641.07 380.76 644.75 C 385.65 645.61 391.19 645.45 395.10 649.02 C 389.52 653.20 382.24 650.95 375.96 650.21 C 372.59 649.79 369.22 655.11 366.37 652.10 C 368.09 645.78 372.99 640.91 377.88 636.83 Z"/>
<path fill="#ebebca" d=" M 436.44 638.39 C 439.31 635.99 442.36 633.53 446.09 632.67 C 448.63 633.27 446.99 635.88 446.37 637.38 C 443.13 643.23 438.20 648.09 432.54 651.62 C 430.88 652.78 428.84 653.00 426.89 653.23 C 427.56 647.10 432.16 642.40 436.44 638.39 Z"/>
<path fill="#ebebca" d=" M 410.63 641.60 C 411.77 641.23 413.89 640.30 414.47 641.94 C 414.10 645.35 411.91 648.17 409.81 650.76 C 406.59 654.54 402.87 657.98 398.59 660.54 C 397.20 661.55 395.46 661.26 393.86 661.30 C 394.26 659.39 394.58 657.40 395.72 655.77 C 399.47 649.97 404.46 644.81 410.63 641.60 Z"/>
<path fill="#ebebca" d=" M 543.58 642.45 C 545.23 641.30 547.28 641.17 549.21 640.86 C 549.08 647.13 543.93 651.67 539.82 655.80 C 536.60 658.14 533.17 662.11 528.84 661.16 C 528.16 659.11 529.41 657.12 530.39 655.42 C 533.78 650.22 538.34 645.79 543.58 642.45 Z"/>
<path fill="#ebebca" d=" M 521.81 647.84 C 523.49 645.20 526.53 644.08 529.39 643.24 C 531.15 648.22 525.83 653.67 520.91 653.16 C 519.71 651.45 520.87 649.37 521.81 647.84 Z"/>
<path fill="#ebebca" d=" M 477.79 650.73 C 479.35 649.72 481.20 649.41 482.98 648.98 C 482.96 650.47 483.30 652.10 482.43 653.45 C 479.45 658.86 474.94 663.31 470.02 666.98 C 467.99 668.60 465.48 669.35 463.01 669.99 C 462.98 668.43 462.59 666.77 463.53 665.39 C 466.98 659.43 471.99 654.41 477.79 650.73 Z"/>
<path fill="#ebebca" d=" M 445.40 652.69 C 444.61 650.56 447.65 650.51 449.00 650.05 C 455.45 649.38 462.53 649.72 468.17 653.29 C 465.34 656.46 460.77 655.84 456.95 655.85 C 452.99 655.56 448.60 655.30 445.40 652.69 Z"/>
<path fill="#ebebca" d=" M 346.22 653.15 C 347.77 652.20 349.63 652.18 351.37 651.88 C 351.15 653.88 350.94 656.00 349.72 657.70 C 346.13 663.30 341.32 668.23 335.46 671.46 C 334.08 672.05 332.41 673.02 330.93 672.16 C 330.34 670.12 331.53 668.14 332.51 666.43 C 336.02 661.07 340.68 656.41 346.22 653.15 Z"/>
<path fill="#ebebca" d=" M 357.00 657.92 C 360.74 655.19 365.62 655.39 370.00 655.85 C 373.68 656.35 377.84 656.82 380.34 659.92 C 375.94 662.44 370.70 662.02 365.85 661.52 C 362.62 661.16 359.40 660.20 357.00 657.92 Z"/>
<path fill="#ebebca" d=" M 561.65 670.63 C 566.09 664.79 571.61 659.00 578.89 656.98 C 579.04 658.53 579.44 660.20 578.51 661.62 C 575.19 667.69 570.14 672.72 564.37 676.49 C 562.81 677.65 560.81 677.76 558.97 678.04 C 559.11 675.35 559.88 672.71 561.65 670.63 Z"/>
<path fill="#ebebca" d=" M 505.72 666.75 C 507.58 664.41 511.06 661.56 513.93 664.04 C 512.48 668.05 509.71 672.56 504.88 672.59 C 502.85 670.92 504.64 668.42 505.72 666.75 Z"/>
<path fill="#a8a8a8" d=" M 80.45 666.39 C 81.16 665.92 81.87 665.47 82.58 665.02 C 82.83 671.67 82.61 678.31 82.39 684.96 C 82.21 687.83 83.86 690.30 84.94 692.85 C 69.55 698.98 54.21 705.23 38.97 711.74 C 58.18 722.03 77.45 732.20 96.63 742.54 C 118.45 754.45 140.61 765.75 162.33 777.84 C 160.47 786.84 158.78 795.88 156.84 804.87 C 139.11 794.10 121.78 782.71 104.10 771.87 C 72.22 751.88 40.41 731.78 8.55 711.76 C 27.12 699.19 46.13 687.28 64.80 674.85 C 69.59 671.25 75.70 670.09 80.45 666.39 Z"/>
<path fill="#ebebca" d=" M 350.20 675.17 C 354.08 670.84 358.73 666.96 364.38 665.23 C 365.73 668.88 362.93 672.10 360.92 674.85 C 356.92 679.72 352.04 684.38 345.91 686.31 C 345.53 686.00 344.76 685.39 344.38 685.08 C 345.28 681.27 347.68 678.07 350.20 675.17 Z"/>
<path fill="#ebebca" d=" M 583.04 672.99 C 586.72 669.72 590.76 665.67 596.07 665.85 C 594.93 673.08 589.10 678.40 583.67 682.76 C 581.24 684.26 578.30 687.02 575.32 685.53 C 575.96 680.48 579.75 676.58 583.04 672.99 Z"/>
<path fill="#ebebca" d=" M 403.06 677.03 C 406.95 673.08 411.33 669.03 416.98 668.04 C 417.06 669.78 417.25 671.66 416.22 673.21 C 412.87 678.97 408.00 683.82 402.40 687.42 C 400.71 688.57 398.62 688.75 396.67 689.11 C 396.58 684.22 400.09 680.49 403.06 677.03 Z"/>
<path fill="#ebebca" d=" M 491.74 669.74 C 493.22 668.70 495.04 668.48 496.77 668.20 C 497.20 673.45 492.99 677.29 489.87 680.94 C 486.13 684.50 482.12 688.61 476.70 689.16 C 476.80 687.56 476.61 685.85 477.51 684.44 C 480.90 678.43 485.93 673.42 491.74 669.74 Z"/>
<path fill="#ebebca" d=" M 447.01 673.02 C 448.73 671.82 450.82 671.42 452.86 671.13 C 452.94 675.81 449.57 679.44 446.77 682.81 C 443.03 686.61 438.79 690.90 433.28 691.68 C 431.47 690.77 433.06 688.72 433.44 687.39 C 436.53 681.49 441.41 676.59 447.01 673.02 Z"/>
<path fill="#ebebca" d=" M 360.12 686.92 C 365.33 683.06 372.33 684.63 378.19 685.78 C 381.17 686.67 384.07 685.18 387.01 684.84 C 387.11 689.75 383.02 694.71 377.90 694.48 C 377.80 693.62 377.60 691.91 377.50 691.05 C 371.61 690.51 364.86 691.14 360.12 686.92 Z"/>
<path fill="#ebebca" d=" M 499.23 687.98 C 505.54 684.48 513.42 685.70 519.97 687.94 C 522.30 688.99 524.81 688.03 527.19 687.74 C 527.56 692.46 523.52 696.62 519.03 697.29 C 516.59 696.77 518.43 693.76 518.48 692.14 C 512.04 691.77 504.30 692.83 499.23 687.98 Z"/>
<path fill="#d4d4d4" d=" M 722.03 687.58 C 724.39 686.89 726.79 686.31 729.21 685.77 C 726.08 700.92 722.45 715.97 719.10 731.08 C 716.34 744.41 712.49 757.53 710.87 771.07 C 698.46 856.06 686.14 941.06 673.75 1026.04 C 672.51 1034.29 671.54 1042.60 669.46 1050.69 C 668.20 1055.35 667.80 1060.31 665.72 1064.70 C 663.29 1067.13 660.00 1068.39 657.13 1070.19 C 580.06 1116.18 502.84 1161.93 425.82 1208.01 C 425.58 1209.07 425.35 1210.15 425.15 1211.25 C 424.16 1208.06 423.41 1204.77 423.67 1201.42 C 455.42 1183.41 486.77 1164.67 518.37 1146.40 C 565.52 1118.88 612.64 1091.30 659.85 1063.88 C 662.40 1062.16 666.38 1061.05 666.52 1057.40 C 678.82 968.26 690.44 879.01 703.26 789.94 C 705.46 775.98 706.63 761.83 710.20 748.12 C 714.60 728.09 719.46 708.16 723.65 688.09 C 723.24 687.96 722.43 687.71 722.03 687.58 Z"/>
<path fill="#ebebca" d=" M 389.92 702.97 C 393.91 696.54 399.58 690.36 406.89 687.92 C 413.36 690.72 420.98 687.98 427.19 691.79 C 428.54 692.24 428.07 694.49 426.67 694.58 C 420.43 696.37 413.76 695.27 407.65 693.49 C 402.79 699.30 397.74 706.05 390.07 708.08 C 387.05 707.89 389.28 704.50 389.92 702.97 Z"/>
<path fill="#ebebca" d=" M 533.68 688.71 C 535.21 687.71 539.02 686.95 538.16 689.98 C 535.39 696.68 529.88 701.95 524.03 706.04 C 522.23 707.48 519.93 707.85 517.72 708.14 C 517.87 706.59 517.72 704.94 518.63 703.61 C 522.25 697.47 527.49 692.24 533.68 688.71 Z"/>
<path fill="#ffffec" d=" M 637.82 711.94 C 665.89 703.82 694.00 695.85 722.03 687.58 C 722.43 687.71 723.24 687.96 723.65 688.09 C 719.46 708.16 714.60 728.09 710.20 748.12 C 706.63 761.83 705.46 775.98 703.26 789.94 C 690.44 879.01 678.82 968.26 666.52 1057.40 C 666.38 1061.05 662.40 1062.16 659.85 1063.88 C 612.64 1091.30 565.52 1118.88 518.37 1146.40 C 486.77 1164.67 455.42 1183.41 423.67 1201.42 C 424.70 1192.99 423.66 1184.47 424.91 1176.06 C 427.02 1159.69 429.23 1143.33 431.45 1126.97 C 432.01 1122.64 431.41 1118.29 431.02 1113.98 C 429.62 1097.66 428.34 1081.32 426.90 1065.00 C 426.03 1059.65 426.68 1054.28 427.73 1049.02 C 434.58 1004.39 442.55 959.91 447.71 915.03 C 450.72 897.79 453.39 880.45 454.92 863.00 C 456.91 842.35 458.93 821.70 460.90 801.05 C 461.28 797.79 461.17 794.40 462.31 791.29 C 466.37 788.49 471.12 786.90 475.51 784.69 C 504.73 770.12 534.21 756.06 563.41 741.46 C 578.47 734.94 593.78 729.00 608.95 722.74 C 618.52 718.99 627.82 714.45 637.82 711.94 Z"/>
<path fill="#ebebca" d=" M 564.46 699.44 C 564.25 694.49 568.92 690.25 573.73 690.18 C 574.50 695.04 569.55 701.15 564.46 699.44 Z"/>
<path fill="#ffffff" d=" M 38.97 711.74 C 54.21 705.23 69.55 698.98 84.94 692.85 C 87.95 701.74 89.40 711.08 91.78 720.15 C 93.37 727.62 95.75 734.93 96.63 742.54 C 77.45 732.20 58.18 722.03 38.97 711.74 Z"/>
<path fill="#bfbfbf" d=" M 580.75 708.71 C 588.94 703.28 596.52 696.73 605.52 692.66 C 602.23 696.79 597.21 698.89 593.09 702.04 C 587.25 705.74 581.96 710.41 575.62 713.27 C 577.07 711.48 578.80 709.93 580.75 708.71 Z"/>
<path fill="#ebebca" d=" M 423.07 699.94 C 427.76 697.21 433.44 697.80 438.58 698.57 C 441.38 698.93 444.00 700.06 446.27 701.73 C 442.17 705.40 436.24 704.09 431.23 704.13 C 429.10 707.16 426.60 711.45 422.26 710.83 C 419.82 708.40 423.83 705.04 425.17 702.85 C 424.46 701.87 423.77 700.90 423.07 699.94 Z"/>
<path fill="#ebebca" d=" M 490.56 710.52 C 494.54 706.34 499.04 702.01 504.97 701.04 C 505.04 702.78 505.23 704.65 504.20 706.19 C 500.89 711.70 496.31 716.44 490.98 720.01 C 489.16 721.31 486.94 721.73 484.80 722.16 C 484.25 717.45 487.81 713.86 490.56 710.52 Z"/>
<path fill="#ebebca" d=" M 433.73 720.76 C 437.47 716.98 441.66 713.19 446.99 711.96 C 447.10 713.52 447.54 715.21 446.57 716.63 C 443.08 722.86 437.86 728.07 431.82 731.84 C 430.38 732.78 428.59 732.71 426.97 733.01 C 427.01 728.01 430.59 724.23 433.73 720.76 Z"/>
<path fill="#ebebca" d=" M 503.97 721.99 C 503.63 716.81 507.96 712.48 512.96 711.97 C 514.47 717.18 509.08 722.36 503.97 721.99 Z"/>
<path fill="#ebebca" d=" M 538.60 713.61 C 540.14 712.61 541.99 712.44 543.77 712.24 C 543.57 713.99 543.49 715.84 542.51 717.38 C 539.10 723.13 534.24 728.02 528.58 731.57 C 526.93 732.72 524.85 732.70 522.94 732.95 C 523.30 731.12 523.54 729.20 524.54 727.58 C 527.96 721.85 532.89 717.04 538.60 713.61 Z"/>
<path fill="#ebebca" d=" M 454.50 727.45 C 458.09 724.44 461.97 720.33 467.10 720.97 C 466.32 726.27 462.35 730.19 458.85 733.92 C 455.22 737.18 451.29 741.17 446.02 741.01 C 446.50 735.41 450.83 731.28 454.50 727.45 Z"/>
<path fill="#ebebca" d=" M 416.96 727.93 C 418.77 726.81 420.89 726.44 422.94 726.00 C 422.58 727.83 422.40 729.79 421.38 731.42 C 417.04 738.49 410.43 743.83 403.15 747.66 C 402.48 747.00 401.82 746.33 401.18 745.66 C 404.80 738.52 410.13 732.18 416.96 727.93 Z"/>
<path fill="#ebebca" d=" M 487.76 739.25 C 492.88 736.01 499.37 737.04 505.02 738.00 C 507.06 738.71 510.54 738.97 510.79 741.63 C 505.72 744.27 499.70 743.51 494.29 742.54 C 491.81 742.14 489.63 740.87 487.76 739.25 Z"/>
<path fill="#ebebca" d=" M 454.33 742.26 C 459.88 739.79 466.29 740.82 472.05 741.99 C 475.12 742.47 479.06 745.63 477.21 749.01 C 473.96 755.47 468.60 760.77 462.46 764.53 C 460.26 766.08 457.49 765.78 454.95 765.85 C 455.82 757.56 463.30 752.29 469.06 747.16 C 464.92 746.73 460.65 746.75 456.70 745.30 C 455.46 744.72 453.71 743.93 454.33 742.26 Z"/>
<path fill="#ebebca" d=" M 439.60 749.56 C 441.25 748.66 443.14 748.39 444.96 748.01 C 444.57 750.07 444.26 752.24 443.01 754.01 C 438.60 760.50 432.73 766.08 425.56 769.40 C 424.78 768.70 424.02 767.98 423.28 767.26 C 427.13 760.13 432.54 753.67 439.60 749.56 Z"/>
<path fill="#cacaca" d=" M 283.44 780.58 C 285.32 778.22 287.40 773.91 291.06 775.17 C 288.77 777.30 286.32 779.30 283.44 780.58 Z"/>
<path fill="#d4d4d4" d=" M 291.76 779.76 C 295.26 777.61 298.61 774.26 303.05 774.71 C 321.36 775.60 339.67 776.52 357.98 776.96 C 374.63 778.80 391.37 779.71 408.05 781.11 C 416.73 781.66 425.38 782.72 434.08 782.79 C 436.43 782.69 438.55 783.76 440.66 784.66 C 439.25 791.65 439.89 798.79 439.44 805.86 C 438.79 828.53 438.06 851.20 437.47 873.88 C 437.21 882.06 435.51 890.08 434.32 898.15 C 426.24 950.11 418.02 1002.05 410.02 1054.02 C 409.99 1070.00 411.22 1085.99 411.65 1101.97 C 411.76 1111.53 413.32 1121.17 411.54 1130.67 C 407.45 1156.72 403.72 1182.83 399.57 1208.88 C 399.15 1211.01 399.57 1213.17 400.17 1215.24 C 397.82 1220.85 394.93 1226.23 392.86 1231.97 C 391.14 1232.62 389.38 1233.17 387.74 1234.00 L 387.16 1234.00 C 386.60 1233.24 386.04 1232.51 385.48 1231.79 C 382.04 1230.73 378.86 1229.03 375.74 1227.28 C 325.02 1200.12 274.15 1173.21 223.46 1145.98 C 223.64 1144.71 223.82 1143.46 224.01 1142.23 C 224.48 1142.39 225.44 1142.72 225.91 1142.89 C 255.51 1097.77 284.63 1052.33 313.83 1006.95 C 318.24 1000.39 322.07 993.40 327.32 987.45 C 336.79 974.38 344.87 960.37 354.19 947.19 C 355.94 944.88 356.97 942.16 357.70 939.39 C 348.42 926.98 339.45 914.34 330.32 901.82 C 325.46 895.22 319.98 889.02 316.24 881.68 C 309.26 871.32 302.58 860.76 295.29 850.62 C 283.97 833.50 272.47 816.51 261.03 799.47 C 271.29 792.93 281.51 786.33 291.76 779.76 Z"/>
<path fill="#7f141a" d=" M 562.74 809.05 C 574.80 806.51 587.65 808.59 598.42 814.54 C 613.60 822.63 624.72 836.60 632.76 851.52 C 645.16 874.96 650.58 901.56 651.51 927.90 C 652.27 953.07 648.45 978.44 639.84 1002.13 C 633.27 1019.60 623.93 1036.38 610.45 1049.47 C 597.85 1061.72 580.38 1070.38 562.46 1068.20 C 549.41 1066.68 537.34 1060.08 527.98 1051.03 C 511.01 1034.77 501.11 1012.53 495.44 990.04 C 488.39 961.33 487.88 931.08 493.71 902.11 C 497.79 881.75 505.03 861.84 516.48 844.43 C 527.39 828.06 543.01 813.39 562.74 809.05 Z"/>
<path fill="#000000" d=" M 533.42 869.14 C 537.30 869.70 541.15 870.50 544.92 871.59 C 549.01 872.47 551.36 878.20 548.76 881.58 C 547.57 883.26 546.05 884.79 543.98 885.29 C 540.34 886.53 537.02 888.74 534.69 891.83 C 534.07 891.81 532.81 891.76 532.18 891.73 C 533.69 886.18 533.15 880.50 531.86 874.97 C 531.01 872.80 532.53 870.97 533.42 869.14 Z"/>
<path fill="#000000" d=" M 564.89 878.81 C 574.32 877.78 583.38 874.50 591.93 870.49 C 597.34 872.27 603.61 874.16 606.88 879.19 C 602.89 882.46 597.37 880.48 592.75 881.72 C 588.02 883.05 583.54 885.16 579.10 887.24 C 576.73 888.27 574.68 890.24 572.06 890.53 C 568.37 889.77 565.32 887.43 562.50 885.08 C 562.93 882.97 562.41 879.73 564.89 878.81 Z"/>
<path fill="#000000" d=" M 587.08 893.40 C 590.80 892.28 595.29 892.45 598.04 889.28 C 603.15 889.60 607.68 892.26 611.66 895.29 C 613.27 896.40 613.36 898.38 613.52 900.17 C 611.85 900.55 610.20 900.98 608.56 901.41 C 608.04 903.37 607.35 905.32 605.63 906.56 C 604.43 911.03 603.50 915.60 603.32 920.25 C 598.94 921.45 594.42 921.88 589.91 922.19 C 585.91 922.32 582.63 924.98 578.79 925.73 C 575.39 925.79 572.39 923.86 569.46 922.39 C 567.94 921.42 565.89 920.79 565.23 918.96 C 563.22 914.15 561.96 909.03 561.44 903.85 C 556.44 905.34 555.32 910.88 552.41 914.56 C 549.69 919.32 545.42 922.96 542.82 927.77 C 548.96 930.19 555.67 930.38 561.91 932.52 C 565.32 933.86 568.80 932.26 572.05 931.21 C 583.27 927.13 595.32 926.69 607.08 925.46 C 609.72 925.33 611.59 923.18 613.76 921.91 C 618.75 924.81 624.15 927.77 627.15 932.93 C 627.08 934.09 626.95 935.25 626.77 936.42 C 624.82 937.11 621.99 936.81 620.90 938.90 C 619.09 945.46 617.71 952.14 617.31 958.96 C 615.46 968.71 613.91 978.54 613.22 988.45 C 611.08 988.59 608.87 988.68 606.84 987.89 C 603.38 987.13 602.20 983.04 599.03 981.85 C 591.14 981.65 583.71 984.77 576.60 987.83 C 573.35 989.49 568.97 989.40 566.18 986.87 C 564.32 985.25 562.14 984.12 559.64 983.99 C 559.50 979.63 560.31 975.16 558.84 970.95 C 557.16 966.14 557.50 961.00 556.86 956.03 C 556.40 951.67 555.42 947.39 555.27 943.02 C 555.78 938.62 550.29 938.51 547.50 936.83 C 547.41 940.54 547.78 944.25 548.22 947.94 C 548.70 952.30 548.01 956.75 548.90 961.09 C 550.31 967.65 549.26 974.37 549.65 981.01 C 549.97 984.11 547.16 986.49 544.35 987.05 C 541.35 984.47 538.14 982.13 535.41 979.26 C 537.11 971.66 538.17 963.76 537.10 956.00 C 536.33 948.61 537.46 941.02 535.37 933.80 C 531.83 937.11 528.38 940.51 524.92 943.91 C 521.15 947.68 515.80 949.13 510.88 950.74 C 514.89 945.17 519.20 939.78 524.02 934.89 C 526.60 932.03 528.04 928.39 530.23 925.25 C 533.46 920.02 537.52 915.20 539.53 909.31 C 534.79 910.65 532.21 916.18 526.98 916.32 C 523.42 916.00 519.43 915.84 516.58 913.42 C 514.38 911.66 515.46 908.49 515.25 906.09 C 519.14 905.85 523.15 905.72 526.75 904.02 C 531.61 901.82 536.89 900.79 541.81 898.76 C 544.44 897.76 546.26 895.19 548.96 894.47 C 553.25 895.37 557.18 897.56 560.94 899.77 C 562.00 898.98 562.60 897.86 562.92 896.60 C 564.30 897.61 565.69 898.61 567.08 899.63 C 573.71 897.43 580.16 894.61 587.08 893.40 Z"/>
<path fill="#7f141a" d=" M 573.28 907.50 C 580.02 905.69 586.08 901.90 592.96 900.45 C 592.63 904.81 591.98 909.13 591.34 913.45 C 586.44 914.29 581.72 915.81 576.93 917.06 C 574.30 915.00 574.60 910.51 573.28 907.50 Z"/>
<path fill="#7f141a" d=" M 589.99 937.14 C 595.03 935.94 600.04 934.41 605.27 934.34 C 606.63 940.01 606.31 945.93 604.75 951.53 C 600.16 950.02 595.34 950.55 590.64 950.96 C 591.14 946.35 592.65 941.38 589.99 937.14 Z"/>
<path fill="#7f141a" d=" M 566.55 944.63 C 569.81 943.51 573.02 942.28 576.26 941.08 C 576.73 945.14 577.94 949.09 578.38 953.16 C 575.72 955.96 571.14 955.44 567.65 956.55 C 567.03 952.60 566.52 948.63 566.55 944.63 Z"/>
<path fill="#7f141a" d=" M 591.28 962.22 C 595.25 960.95 599.38 959.96 603.58 960.49 C 602.68 964.01 601.86 967.55 601.18 971.13 C 598.29 971.52 595.40 971.93 592.53 972.41 C 591.32 969.14 591.39 965.64 591.28 962.22 Z"/>
<path fill="#7f141a" d=" M 570.10 967.45 C 573.24 966.90 576.39 966.43 579.56 966.06 C 580.20 969.04 580.82 972.03 581.39 975.03 C 579.10 975.88 576.81 976.76 574.55 977.67 C 572.78 974.39 571.42 970.92 570.10 967.45 Z"/>
<path fill="#a8a8a8" d=" M 343.41 1023.87 C 342.59 1018.87 341.13 1013.94 341.31 1008.83 C 354.70 1056.62 368.37 1104.32 381.87 1152.07 C 384.48 1161.95 387.82 1171.66 389.97 1181.66 C 384.68 1185.02 379.57 1188.65 374.24 1191.96 C 363.87 1135.95 353.69 1079.90 343.41 1023.87 Z"/>
</svg>